# xmcd
#
# Track frame offsets: 
#        150
#        16367
#        26923
#        44921
#        61530
#        72560
#        92902
#        109313
#        119330
#        129952
#        148111
#        158957
#        178533
#        195169
#        204822
#        217160
#        236360
#        248987
#        284484
#        300068
#
# Disc length: 4171 seconds
#
# Revision: 0
# Processed by: cddbd v1.5.2PL0 Copyright (c) Steve Scherf et al.
# Submitted via: ExactAudioCopy v0.99pb5
#
DISCID=21104914
DTITLE=Various Artist - Super Hits Country CD 1
DYEAR=2006
DGENRE=Country
TTITLE0=Delly Parton Jolene
TTITLE1=Tammy Wynette and George Jones Near you
TTITLE2=Chet Atkins and Mark Knopfler Poor boy blues
TTITLE3=Johnny Cash The city of New Orleans
TTITLE4=Willie Nelson On the road again
TTITLE5=Tracy Bird Put your hand in mine
TTITLE6=Alabama Mountain music
TTITLE7=Charley Pride Is anybody goin' to San Antone
TTITLE8=Steve Earle Continental trailways blues
TTITLE9=Kris Kristofferson Me and Bobby McGee
TTITLE10=Dolly Parton, Tammy Wynette, Loretta Lynn Silver threads and 
TTITLE10=golden needles
TTITLE11=Roger McGuinn Lost my drivin' wheel
TTITLE12=Dan Fogelberg The language of love
TTITLE13=Jim Reeves Is this me
TTITLE14=Lorrie Morgan What part of no
TTITLE15=TG Sheppard One for the money
TTITLE16=Charlie McCoy Orange blossom special
TTITLE17=The Allman Brothers Band Southbound
TTITLE18=Ricky Skaggs Simple life
TTITLE19=George Jones with Emmylou Harris Here we are
EXTD=
EXTT0=
EXTT1=
EXTT2=
EXTT3=
EXTT4=
EXTT5=
EXTT6=
EXTT7=
EXTT8=
EXTT9=
EXTT10=
EXTT11=
EXTT12=
EXTT13=
EXTT14=
EXTT15=
EXTT16=
EXTT17=
EXTT18=
EXTT19=
PLAYORDER=
